<?xml version="1.0" standalone="no"?><!DOCTYPE svg PUBLIC "-//W3C//DTD SVG 1.1//EN" "http://www.w3.org/Graphics/SVG/1.1/DTD/svg11.dtd"><svg t="1678180733441" class="icon" viewBox="0 0 1024 1024" version="1.1" xmlns="http://www.w3.org/2000/svg" p-id="3881" xmlns:xlink="http://www.w3.org/1999/xlink" width="200" height="200"><path d="M182.649263 455.275789a26.624 26.624 0 0 1-23.417263-11.695157 28.618105 28.618105 0 0 1 5.847579-40.986948L513.374316 127.461053a92.968421 92.968421 0 0 1 119.996631 0l330.725053 263.410526a29.264842 29.264842 0 1 1-35.031579 46.834526L598.258526 174.241684a35.597474 35.597474 0 0 0-46.834526 0L203.129263 449.374316a31.555368 31.555368 0 0 1-20.48 5.901473z" fill="#208BB5" p-id="3882"></path><path d="M721.165474 944.047158H419.705263V589.904842h301.460211z m-242.930527-58.529684h184.400842v-237.136842h-184.400842z" fill="#83D2EA" p-id="3883"></path><path d="M820.682105 944.074105H323.125895a97.441684 97.441684 0 0 1-96.579369-96.714105V528.464842a88.926316 88.926316 0 0 1 35.031579-73.162105l248.778106-199.033263a92.968421 92.968421 0 0 1 119.996631 0l248.778105 199.033263a88.926316 88.926316 0 0 1 35.031579 73.162105v318.895158a94.962526 94.962526 0 0 1-93.480421 96.714105z m-248.778105-652.69221a33.226105 33.226105 0 0 0-23.417263 8.784842l-248.778105 199.033263a36.028632 36.028632 0 0 0-14.632421 29.264842v318.895158a38.750316 38.750316 0 0 0 38.049684 38.049684h497.55621a38.750316 38.750316 0 0 0 38.049684-38.049684V528.464842a40.636632 40.636632 0 0 0-14.632421-29.264842l-248.778105-199.033263a46.699789 46.699789 0 0 0-23.417263-8.784842z" fill="#208BB5" p-id="3884"></path></svg>